<svg xmlns="http://www.w3.org/2000/svg" class="icon icon-tabler icon-tabler-virus" width="250px" height="250px" viewBox="0 0 24 24" stroke-width="0.93" stroke="rgba(255, 255, 255, 1)" fill="none" stroke-linecap="round" stroke-linejoin="round"><rect x="0" y="0" width="100%" height="100%" stroke="none" stroke-width="0" fill="rgba(67, 160, 71, 1)" rx="5" ry="5"/><g transform="translate(1.68, 1.68) scale(0.86)"><path stroke="none" d="M0 0h24v24H0z" fill="none"/><circle cx="12" cy="12" r="5"/><path d="M12 7v-4m-1 0h2"/><path d="M12 7v-4m-1 0h2" transform="rotate(45 12 12)"/><path d="M12 7v-4m-1 0h2" transform="rotate(90 12 12)"/><path d="M12 7v-4m-1 0h2" transform="rotate(135 12 12)"/><path d="M12 7v-4m-1 0h2" transform="rotate(180 12 12)"/><path d="M12 7v-4m-1 0h2" transform="rotate(225 12 12)"/><path d="M12 7v-4m-1 0h2" transform="rotate(270 12 12)"/><path d="M12 7v-4m-1 0h2" transform="rotate(315 12 12)"/></g></svg>